<mxfile host="65bd71144e">
    <diagram id="3EV9JLm5gm2QZJNtnSFb" name="PÃ¡gina-1">
        <mxGraphModel dx="972" dy="539" grid="1" gridSize="10" guides="1" tooltips="1" connect="1" arrows="1" fold="1" page="1" pageScale="1" pageWidth="2336" pageHeight="1654" background="#000000" math="0" shadow="0">
            <root>
                <mxCell id="0"/>
                <mxCell id="1" parent="0"/>
                <mxCell id="2" value="" style="sketch=0;outlineConnect=0;fontColor=#232F3E;gradientColor=none;fillColor=#56AA02;strokeColor=none;dashed=0;verticalLabelPosition=bottom;verticalAlign=top;align=center;html=1;fontSize=12;fontStyle=0;aspect=fixed;pointerEvents=1;shape=mxgraph.aws4.endpoint;" vertex="1" parent="1">
                    <mxGeometry x="110" y="120" width="50" height="50" as="geometry"/>
                </mxCell>
                <mxCell id="3" style="edgeStyle=none;html=1;exitX=0;exitY=0.5;exitDx=0;exitDy=0;endArrow=none;endFill=0;dashed=1;" edge="1" parent="1" source="5" target="2">
                    <mxGeometry relative="1" as="geometry">
                        <Array as="points">
                            <mxPoint x="180" y="45"/>
                            <mxPoint x="180" y="145"/>
                        </Array>
                    </mxGeometry>
                </mxCell>
                <mxCell id="4" style="edgeStyle=none;html=1;exitX=1;exitY=0.5;exitDx=0;exitDy=0;entryX=0;entryY=0.5;entryDx=0;entryDy=0;endArrow=classic;endFill=1;dashed=1;" edge="1" parent="1" source="5" target="6">
                    <mxGeometry relative="1" as="geometry"/>
                </mxCell>
                <mxCell id="5" value="/auth/register" style="shape=process;whiteSpace=wrap;html=1;backgroundOutline=1;fillColor=#191919;strokeColor=#242424;" vertex="1" parent="1">
                    <mxGeometry x="200" y="32.5" width="120" height="25" as="geometry"/>
                </mxCell>
                <mxCell id="6" value="POST" style="rounded=1;whiteSpace=wrap;html=1;strokeColor=#2D7600;fillColor=#60a917;fontColor=#ffffff;" vertex="1" parent="1">
                    <mxGeometry x="360" y="30" width="50" height="30" as="geometry"/>
                </mxCell>
                <mxCell id="7" style="edgeStyle=none;html=1;exitX=0.5;exitY=1;exitDx=0;exitDy=0;endArrow=classic;endFill=1;" edge="1" parent="1" source="8" target="2">
                    <mxGeometry relative="1" as="geometry"/>
                </mxCell>
                <mxCell id="8" value="Request" style="text;html=1;strokeColor=none;fillColor=none;align=center;verticalAlign=middle;whiteSpace=wrap;rounded=0;" vertex="1" parent="1">
                    <mxGeometry x="105" y="30" width="60" height="30" as="geometry"/>
                </mxCell>
                <mxCell id="9" style="edgeStyle=none;html=1;exitX=0;exitY=0.5;exitDx=0;exitDy=0;dashed=1;fontColor=#2B2B2B;startArrow=none;startFill=0;endArrow=none;endFill=0;" edge="1" parent="1" source="10" target="2">
                    <mxGeometry relative="1" as="geometry"/>
                </mxCell>
                <mxCell id="16" style="edgeStyle=none;html=1;exitX=1;exitY=0.5;exitDx=0;exitDy=0;entryX=0.464;entryY=-0.013;entryDx=0;entryDy=0;startArrow=none;startFill=0;endArrow=classic;endFill=1;entryPerimeter=0;" edge="1" parent="1" source="10" target="13">
                    <mxGeometry relative="1" as="geometry">
                        <Array as="points">
                            <mxPoint x="400" y="145"/>
                        </Array>
                    </mxGeometry>
                </mxCell>
                <mxCell id="10" value="&quot;Register&quot;" style="rounded=1;whiteSpace=wrap;html=1;fillStyle=auto;strokeColor=#006EAF;strokeWidth=1;fontColor=#ffffff;fillColor=#1ba1e2;" vertex="1" parent="1">
                    <mxGeometry x="230" y="130" width="100" height="30" as="geometry"/>
                </mxCell>
                <mxCell id="12" style="edgeStyle=none;html=1;exitX=-0.003;exitY=0.43;exitDx=0;exitDy=0;startArrow=classic;startFill=1;endArrow=none;endFill=0;exitPerimeter=0;" edge="1" parent="1" source="11" target="2">
                    <mxGeometry relative="1" as="geometry">
                        <Array as="points">
                            <mxPoint x="135" y="270"/>
                        </Array>
                    </mxGeometry>
                </mxCell>
                <mxCell id="15" style="edgeStyle=none;html=1;exitX=0.5;exitY=0;exitDx=0;exitDy=0;entryX=0;entryY=0.5;entryDx=0;entryDy=0;dashed=1;startArrow=none;startFill=0;endArrow=none;endFill=0;" edge="1" parent="1" source="11" target="13">
                    <mxGeometry relative="1" as="geometry">
                        <Array as="points">
                            <mxPoint x="280" y="220"/>
                        </Array>
                    </mxGeometry>
                </mxCell>
                <mxCell id="18" style="edgeStyle=none;html=1;exitX=0.75;exitY=1;exitDx=0;exitDy=0;entryX=0;entryY=0.5;entryDx=0;entryDy=0;startArrow=none;startFill=0;endArrow=classic;endFill=1;" edge="1" parent="1" source="11" target="17">
                    <mxGeometry relative="1" as="geometry">
                        <Array as="points">
                            <mxPoint x="315" y="385"/>
                        </Array>
                    </mxGeometry>
                </mxCell>
                <mxCell id="11" value="exec_register" style="rounded=1;whiteSpace=wrap;html=1;fillStyle=auto;strokeColor=none;strokeWidth=1;fillColor=#242424;" vertex="1" parent="1">
                    <mxGeometry x="210" y="240" width="140" height="70" as="geometry"/>
                </mxCell>
                <mxCell id="19" style="edgeStyle=none;html=1;exitX=0.5;exitY=1;exitDx=0;exitDy=0;entryX=0.5;entryY=0;entryDx=0;entryDy=0;startArrow=none;startFill=0;endArrow=classic;endFill=1;" edge="1" parent="1" source="13" target="17">
                    <mxGeometry relative="1" as="geometry">
                        <Array as="points">
                            <mxPoint x="405" y="250"/>
                            <mxPoint x="530" y="250"/>
                        </Array>
                    </mxGeometry>
                </mxCell>
                <mxCell id="13" value="request.header.get( )" style="rounded=1;whiteSpace=wrap;html=1;fillStyle=auto;strokeWidth=1;fillColor=#f5f5f5;gradientColor=#b3b3b3;strokeColor=#666666;fontColor=#2B2B2B;" vertex="1" parent="1">
                    <mxGeometry x="340" y="210" width="130" height="20" as="geometry"/>
                </mxCell>
                <mxCell id="21" style="edgeStyle=none;html=1;exitX=0.5;exitY=1;exitDx=0;exitDy=0;entryX=0;entryY=0.5;entryDx=0;entryDy=0;startArrow=none;startFill=0;endArrow=classic;endFill=1;" edge="1" parent="1" source="17" target="20">
                    <mxGeometry relative="1" as="geometry">
                        <Array as="points">
                            <mxPoint x="530" y="445"/>
                        </Array>
                    </mxGeometry>
                </mxCell>
                <mxCell id="35" style="edgeStyle=none;html=1;exitX=0.5;exitY=1;exitDx=0;exitDy=0;entryX=0;entryY=0.5;entryDx=0;entryDy=0;startArrow=none;startFill=0;endArrow=classic;endFill=1;" edge="1" parent="1" source="17" target="34">
                    <mxGeometry relative="1" as="geometry">
                        <Array as="points">
                            <mxPoint x="530" y="625"/>
                        </Array>
                    </mxGeometry>
                </mxCell>
                <mxCell id="17" value="read_authentication" style="rounded=1;whiteSpace=wrap;html=1;fillStyle=auto;strokeColor=none;strokeWidth=1;fillColor=#242424;" vertex="1" parent="1">
                    <mxGeometry x="460" y="370" width="140" height="30" as="geometry"/>
                </mxCell>
                <mxCell id="20" value="Try" style="shape=process;whiteSpace=wrap;html=1;backgroundOutline=1;fillStyle=auto;strokeColor=#2B2B2B;strokeWidth=1;fontColor=#FFFFFF;fillColor=#242424;" vertex="1" parent="1">
                    <mxGeometry x="550" y="430" width="50" height="30" as="geometry"/>
                </mxCell>
                <mxCell id="25" style="edgeStyle=none;html=1;exitX=0.5;exitY=1;exitDx=0;exitDy=0;entryX=0;entryY=0.5;entryDx=0;entryDy=0;startArrow=none;startFill=0;endArrow=none;endFill=0;" edge="1" parent="1" source="22" target="24">
                    <mxGeometry relative="1" as="geometry">
                        <Array as="points">
                            <mxPoint x="575" y="490"/>
                        </Array>
                    </mxGeometry>
                </mxCell>
                <mxCell id="22" value="Try" style="shape=process;whiteSpace=wrap;html=1;backgroundOutline=1;fillStyle=auto;strokeColor=#2B2B2B;strokeWidth=1;fontColor=#FFFFFF;fillColor=#242424;" vertex="1" parent="1">
                    <mxGeometry x="550" y="430" width="50" height="30" as="geometry"/>
                </mxCell>
                <mxCell id="29" style="edgeStyle=none;html=1;exitX=0.5;exitY=1;exitDx=0;exitDy=0;entryX=0;entryY=0.5;entryDx=0;entryDy=0;startArrow=none;startFill=0;endArrow=none;endFill=0;" edge="1" parent="1" source="24" target="27">
                    <mxGeometry relative="1" as="geometry">
                        <Array as="points">
                            <mxPoint x="680" y="530"/>
                        </Array>
                    </mxGeometry>
                </mxCell>
                <mxCell id="30" style="edgeStyle=none;html=1;exitX=0.5;exitY=1;exitDx=0;exitDy=0;entryX=0;entryY=0.5;entryDx=0;entryDy=0;startArrow=none;startFill=0;endArrow=none;endFill=0;" edge="1" parent="1" source="24" target="28">
                    <mxGeometry relative="1" as="geometry">
                        <Array as="points">
                            <mxPoint x="680" y="560"/>
                        </Array>
                    </mxGeometry>
                </mxCell>
                <mxCell id="24" value="Split the string (when there are spaces) to get only the token string" style="rounded=0;whiteSpace=wrap;html=1;fillStyle=auto;strokeColor=#3700CC;strokeWidth=1;fillColor=#6a00ff;align=left;fontSize=10;spacingLeft=5;fontColor=#ffffff;" vertex="1" parent="1">
                    <mxGeometry x="590" y="470" width="180" height="40" as="geometry"/>
                </mxCell>
                <mxCell id="32" style="edgeStyle=none;html=1;exitX=1;exitY=0.5;exitDx=0;exitDy=0;entryX=0;entryY=0.5;entryDx=0;entryDy=0;startArrow=none;startFill=0;endArrow=none;endFill=0;" edge="1" parent="1" source="27" target="31">
                    <mxGeometry relative="1" as="geometry">
                        <Array as="points">
                            <mxPoint x="950" y="530"/>
                            <mxPoint x="950" y="385"/>
                        </Array>
                    </mxGeometry>
                </mxCell>
                <mxCell id="27" value="IndexError" style="rounded=1;whiteSpace=wrap;html=1;fillStyle=auto;strokeColor=#B20000;strokeWidth=1;fontSize=10;fontColor=#ffffff;fillColor=#e51400;" vertex="1" parent="1">
                    <mxGeometry x="710" y="520" width="120" height="20" as="geometry"/>
                </mxCell>
                <mxCell id="33" style="edgeStyle=none;html=1;exitX=1;exitY=0.5;exitDx=0;exitDy=0;entryX=0;entryY=0.5;entryDx=0;entryDy=0;startArrow=none;startFill=0;endArrow=none;endFill=0;" edge="1" parent="1" source="28" target="31">
                    <mxGeometry relative="1" as="geometry">
                        <Array as="points">
                            <mxPoint x="950" y="560"/>
                            <mxPoint x="950" y="385"/>
                        </Array>
                    </mxGeometry>
                </mxCell>
                <mxCell id="28" value="AttributeError" style="rounded=1;whiteSpace=wrap;html=1;fillStyle=auto;strokeColor=#B20000;strokeWidth=1;fontSize=10;fontColor=#ffffff;fillColor=#e51400;" vertex="1" parent="1">
                    <mxGeometry x="710" y="550" width="120" height="20" as="geometry"/>
                </mxCell>
                <mxCell id="31" value="invalid_header_data, 400" style="rounded=1;whiteSpace=wrap;html=1;fillStyle=auto;strokeColor=#B09500;strokeWidth=1;fillColor=#e3c800;fontColor=#000000;" vertex="1" parent="1">
                    <mxGeometry x="970" y="370" width="150" height="30" as="geometry"/>
                </mxCell>
                <mxCell id="37" style="edgeStyle=none;html=1;exitX=0.5;exitY=1;exitDx=0;exitDy=0;entryX=0;entryY=0.5;entryDx=0;entryDy=0;startArrow=none;startFill=0;endArrow=none;endFill=0;" edge="1" parent="1" source="34" target="36">
                    <mxGeometry relative="1" as="geometry">
                        <Array as="points">
                            <mxPoint x="575" y="670"/>
                        </Array>
                    </mxGeometry>
                </mxCell>
                <mxCell id="34" value="if" style="shape=process;whiteSpace=wrap;html=1;backgroundOutline=1;fillStyle=auto;strokeColor=#2B2B2B;strokeWidth=1;fontColor=#FFFFFF;fillColor=#242424;" vertex="1" parent="1">
                    <mxGeometry x="550" y="610" width="50" height="30" as="geometry"/>
                </mxCell>
                <mxCell id="39" style="edgeStyle=none;html=1;exitX=0.5;exitY=1;exitDx=0;exitDy=0;entryX=0;entryY=0.5;entryDx=0;entryDy=0;startArrow=none;startFill=0;endArrow=none;endFill=0;" edge="1" parent="1" source="36" target="38">
                    <mxGeometry relative="1" as="geometry">
                        <Array as="points">
                            <mxPoint x="680" y="710"/>
                        </Array>
                    </mxGeometry>
                </mxCell>
                <mxCell id="43" style="edgeStyle=none;html=1;exitX=0.5;exitY=1;exitDx=0;exitDy=0;entryX=0;entryY=0.5;entryDx=0;entryDy=0;startArrow=none;startFill=0;endArrow=none;endFill=0;" edge="1" parent="1" source="36" target="42">
                    <mxGeometry relative="1" as="geometry">
                        <Array as="points">
                            <mxPoint x="680" y="740"/>
                        </Array>
                    </mxGeometry>
                </mxCell>
                <mxCell id="36" value="decrypt_credentials length != 3" style="rounded=0;whiteSpace=wrap;html=1;fillStyle=auto;strokeColor=#3700CC;strokeWidth=1;fillColor=#6a00ff;align=left;fontSize=10;spacingLeft=5;fontColor=#ffffff;" vertex="1" parent="1">
                    <mxGeometry x="590" y="650" width="180" height="40" as="geometry"/>
                </mxCell>
                <mxCell id="41" style="edgeStyle=none;html=1;exitX=1;exitY=0.5;exitDx=0;exitDy=0;entryX=0;entryY=0.5;entryDx=0;entryDy=0;startArrow=none;startFill=0;endArrow=none;endFill=0;" edge="1" parent="1" source="38" target="40">
                    <mxGeometry relative="1" as="geometry">
                        <Array as="points">
                            <mxPoint x="940" y="710"/>
                            <mxPoint x="940" y="425"/>
                        </Array>
                    </mxGeometry>
                </mxCell>
                <mxCell id="38" value="colon_error" style="rounded=1;whiteSpace=wrap;html=1;fillStyle=auto;strokeColor=#B20000;strokeWidth=1;fontSize=10;fontColor=#ffffff;fillColor=#e51400;" vertex="1" parent="1">
                    <mxGeometry x="710" y="700" width="120" height="20" as="geometry"/>
                </mxCell>
                <mxCell id="40" value="colon_error, 400" style="rounded=1;whiteSpace=wrap;html=1;fillStyle=auto;strokeColor=#B09500;strokeWidth=1;fillColor=#e3c800;fontColor=#000000;" vertex="1" parent="1">
                    <mxGeometry x="970" y="410" width="150" height="30" as="geometry"/>
                </mxCell>
                <mxCell id="45" style="edgeStyle=none;html=1;exitX=0.5;exitY=1;exitDx=0;exitDy=0;entryX=0;entryY=0.5;entryDx=0;entryDy=0;startArrow=none;startFill=0;endArrow=classic;endFill=1;" edge="1" parent="1" source="42" target="44">
                    <mxGeometry relative="1" as="geometry">
                        <Array as="points">
                            <mxPoint x="730" y="760"/>
                            <mxPoint x="530" y="760"/>
                            <mxPoint x="530" y="785"/>
                        </Array>
                    </mxGeometry>
                </mxCell>
                <mxCell id="42" value="pass" style="rounded=1;whiteSpace=wrap;html=1;fillStyle=auto;strokeColor=#2D7600;strokeWidth=1;fontSize=10;fontColor=#ffffff;fillColor=#60a917;" vertex="1" parent="1">
                    <mxGeometry x="710" y="730" width="40" height="20" as="geometry"/>
                </mxCell>
                <mxCell id="47" style="edgeStyle=none;html=1;exitX=0.5;exitY=1;exitDx=0;exitDy=0;entryX=0;entryY=0.5;entryDx=0;entryDy=0;startArrow=none;startFill=0;endArrow=none;endFill=0;" edge="1" parent="1" source="44" target="46">
                    <mxGeometry relative="1" as="geometry">
                        <Array as="points">
                            <mxPoint x="575" y="830"/>
                        </Array>
                    </mxGeometry>
                </mxCell>
                <mxCell id="44" value="if" style="shape=process;whiteSpace=wrap;html=1;backgroundOutline=1;fillStyle=auto;strokeColor=#2B2B2B;strokeWidth=1;fontColor=#FFFFFF;fillColor=#242424;" vertex="1" parent="1">
                    <mxGeometry x="550" y="770" width="50" height="30" as="geometry"/>
                </mxCell>
                <mxCell id="46" value="decrypt_credentials exists and their length is &amp;gt; 0" style="rounded=0;whiteSpace=wrap;html=1;fillStyle=auto;strokeColor=#3700CC;strokeWidth=1;fillColor=#6a00ff;align=left;fontSize=10;spacingLeft=5;fontColor=#ffffff;" vertex="1" parent="1">
                    <mxGeometry x="590" y="807" width="180" height="40" as="geometry"/>
                </mxCell>
            </root>
        </mxGraphModel>
    </diagram>
</mxfile>